<?xml version="1.0" encoding="utf-8"?>
<!-- Generator: Adobe Illustrator 17.0.2, SVG Export Plug-In . SVG Version: 6.00 Build 0)  -->
<!DOCTYPE svg PUBLIC "-//W3C//DTD SVG 1.1//EN" "http://www.w3.org/Graphics/SVG/1.1/DTD/svg11.dtd">
<svg version="1.1" id="Calque_1" xmlns="http://www.w3.org/2000/svg" xmlns:xlink="http://www.w3.org/1999/xlink" x="0px" y="0px"
	 width="172.778px" height="172.778px" viewBox="0 0 172.778 172.778" enable-background="new 0 0 172.778 172.778"
	 xml:space="preserve">
<g>
	<g>
		<polygon fill="#EFEFEF" points="79.169,108.12 87.854,108.12 83.594,88.055 		"/>
		<path fill="#EFEFEF" d="M138.727,0.913H33.859c-18.663,0-33.791,15.129-33.791,33.791v104.868
			c0,18.663,15.129,33.792,33.791,33.792h104.868c18.663,0,33.792-15.129,33.792-33.792V34.704
			C172.519,16.042,157.39,0.913,138.727,0.913z M25.489,127.239l-0.01-55.769h15.202l0.006,44.911h17.285l0.003,10.858H25.489z
			 M91.942,127.233l-1.74-8.338H76.827L75,127.233l-14.94,0.006l14.325-55.776h18.503l14.341,55.769H91.942z M135.55,127.226
			l-12.426-29.278l0.003,29.278l-13.897,0.006l-0.01-55.769l13.029-0.006l12.43,29.796l-0.006-29.796h13.9l0.01,55.769H135.55z"/>
	</g>
	<g>
		<path fill="#0AC161" d="M52.943,36.348h4.448l-5.795,24.548H44.52l-3.907-19.689l-3.839,19.689H29.7l-5.792-24.548h4.448
			l4.849,22.119l4.244-22.119h6.401l4.176,22.119L52.943,36.348z"/>
		<path fill="#0AC161" d="M66.078,36.348h6.197c3.547,0,5.322,1.335,5.322,3.997v9.465H65.405v6.531
			c0,0.674,0.133,1.108,0.402,1.289c0.272,0.188,0.833,0.279,1.684,0.279h3.168c0.897,0,1.471-0.091,1.717-0.279
			c0.246-0.181,0.369-0.615,0.369-1.289v-2.229h4.649v2.786c0,2.669-1.772,3.997-5.319,3.997h-5.996
			c-3.55,0-5.322-1.328-5.322-3.997V40.346C60.756,37.683,62.528,36.348,66.078,36.348z M65.405,46.824h7.545v-5.922
			c0-0.641-0.136-1.063-0.405-1.263c-0.269-0.207-0.833-0.305-1.684-0.305h-3.369c-0.852,0-1.412,0.097-1.684,0.305
			c-0.269,0.201-0.402,0.622-0.402,1.263V46.824z"/>
	</g>
</g>
</svg>
